# xmcd
#
# Track frame offsets: 
#        150
#        16206
#        36264
#
# Disc length: 788 seconds
#
# Revision: 1
# Processed by: cddbd v1.5.1PL2 Copyright (c) Steve Scherf et al.
# Submitted via: ExactAudioCopy v0.95a3
#
DISCID=1a031203
DTITLE=NFD - Light My Way
DYEAR=2006
DGENRE=Gothic Rock
TTITLE0=Light My Way (Radio Edit)
TTITLE1=Light My Way (The Fog Descends)
TTITLE2=Unearthed
EXTD=YEAR: 1999
EXTT0=
EXTT1=
EXTT2=
PLAYORDER=
